<svg width="161" height="24" viewBox="0 0 161 24" fill="none" xmlns="http://www.w3.org/2000/svg">
<path d="M22.1783 19.9866L21.9366 19.9613C15.0879 20.0031 8.25924 19.9201 1.4049 19.9958C1.16663 19.9983 0.702765 20.0158 0.493011 19.9543C0.0614662 19.8282 -0.0136241 19.2645 0.262032 18.948C2.18941 17.0102 4.10792 15.059 6.0128 13.1022C6.0806 13.0328 6.201 12.8921 6.28972 12.8721L23.2043 12.8639L23.2993 12.8956L29.2548 18.9486C29.5665 19.294 29.4395 19.8573 28.9699 19.9635L22.1783 19.9866Z" fill="white"/>
<path d="M7.7676 10.4368C7.2936 10.9358 6.84526 11.4697 6.36334 11.9634C6.28666 12.0419 6.00784 12.3439 5.93401 12.3578L0.453518 12.3578C0.109739 12.3433 -0.113955 12.0283 0.0612622 11.7134C0.0951653 11.6525 0.220636 11.5413 0.278303 11.4868C0.893301 10.9067 1.66704 10.3459 2.32164 9.79138C4.03674 8.33863 5.74961 6.88241 7.46185 5.42618C7.74479 5.40749 8.029 5.42776 8.31226 5.42111L21.8083 5.38879C21.8796 5.39513 22.0396 5.41731 22.0957 5.44995C22.7852 6.04815 23.4708 6.6546 24.1689 7.24235C25.7876 8.60574 27.4675 9.92445 29.0492 11.3287C29.2162 11.4764 29.5296 11.6918 29.5251 11.9288C29.5198 12.208 29.3208 12.3331 29.0641 12.3582L23.558 12.3521C22.6236 11.4491 21.7751 10.459 20.8749 9.52206C20.7859 9.42922 20.5913 9.20331 20.4798 9.18842L9.00901 9.19064C8.88386 9.2144 8.07368 10.1497 7.91621 10.3154C7.86773 10.3665 7.80468 10.3978 7.76792 10.4365L7.7676 10.4368Z" fill="white"/>
<path d="M28.5636 4.45904C28.5272 4.49167 28.4673 4.50435 28.422 4.52336C26.1968 4.61651 24.5286 4.5411 22.2955 4.56169L19.1805 2.07149L10.3079 2.07308L7.22554 4.56423L1.33952 4.56518C1.13231 4.58197 0.762863 4.41563 0.942516 4.16563C1.02997 4.04396 1.91682 3.68466 2.11738 3.59816C4.54316 2.55098 7.07097 1.5206 9.5316 0.556435C10.1761 0.303909 10.7375 0.0399755 11.4466 5.28556e-05L18.1666 5.34431e-05C18.5639 0.0282527 18.9261 0.133129 19.2978 0.263036C22.3116 1.3156 25.2922 2.80573 28.2781 3.95652C28.447 4.04523 28.8146 4.23281 28.5636 4.45904Z" fill="white"/>
<path d="M41.7301 18.2655V1.99535H44.1633V18.2655H41.7301ZM41.7301 18.5V16.3893H52.8114V18.5H41.7301ZM58.843 18.7638C57.7486 18.7638 56.8496 18.5 56.146 17.9723C55.462 17.4446 54.9538 16.7215 54.6216 15.803C54.3089 14.8844 54.1526 13.8291 54.1526 12.6369C54.1526 11.4056 54.3187 10.3307 54.6509 9.41218C54.9832 8.47409 55.4913 7.7412 56.1753 7.21352C56.8789 6.68584 57.7681 6.422 58.843 6.422C59.5075 6.422 60.0743 6.51972 60.5433 6.71515C61.0124 6.89105 61.4033 7.1158 61.716 7.38941C62.0287 7.66302 62.2827 7.94641 62.4782 8.23956C62.6736 8.51317 62.8104 8.75747 62.8886 8.97245H62.9472V6.50994H65.439V18.5H63.3576L62.9472 16.36H62.8886C62.8104 16.5749 62.6736 16.8192 62.4782 17.0929C62.2827 17.3665 62.0189 17.6303 61.6866 17.8844C61.3739 18.1384 60.9831 18.3437 60.514 18.5C60.045 18.6759 59.488 18.7638 58.843 18.7638ZM59.8105 16.6824C60.5922 16.6824 61.2078 16.5163 61.6573 16.1841C62.1068 15.8323 62.4293 15.3535 62.6247 14.7476C62.8202 14.1418 62.9179 13.448 62.9179 12.6662C62.9179 11.8258 62.8104 11.1027 62.5954 10.4969C62.4 9.891 62.0775 9.43173 61.628 9.11903C61.1785 8.78678 60.5727 8.62066 59.8105 8.62066C59.0092 8.62066 58.3642 8.80633 57.8756 9.17766C57.4066 9.52944 57.0646 10.0083 56.8496 10.6141C56.6541 11.22 56.5564 11.8942 56.5564 12.6369C56.5564 13.3991 56.6541 14.0929 56.8496 14.7183C57.0646 15.3241 57.4066 15.803 57.8756 16.1548C58.3642 16.5065 59.0092 16.6824 59.8105 16.6824ZM66.419 23.9527V22.0472H68.1487C68.4223 22.0472 68.6666 22.0081 68.8816 21.9299C69.0965 21.8713 69.3017 21.7149 69.4972 21.4609C69.7122 21.2068 69.9369 20.8159 70.1714 20.2882L71.1975 18.031L66.507 6.50994H69.0281L72.3994 15.5098L76.0052 6.50994H78.5557L72.3994 20.5521C72.0672 21.2947 71.7642 21.8908 71.4906 22.3403C71.2366 22.7898 70.963 23.1319 70.6698 23.3664C70.3962 23.6009 70.0737 23.7573 69.7024 23.8354C69.3506 23.9136 68.9304 23.9527 68.4418 23.9527H66.419ZM85.0983 18.7932C83.7498 18.7932 82.6456 18.5 81.7857 17.9137C80.9257 17.3078 80.2906 16.5359 79.8801 15.5978C79.4697 14.6401 79.2645 13.6532 79.2645 12.6369C79.245 11.4838 79.46 10.4382 79.9095 9.50013C80.3785 8.56203 81.043 7.81937 81.9029 7.27215C82.7824 6.72492 83.828 6.45131 85.0397 6.45131C86.095 6.45131 87.0331 6.68584 87.854 7.15489C88.6748 7.60439 89.3295 8.24933 89.8181 9.08971C90.3067 9.91055 90.5705 10.8877 90.6096 12.0213C90.6292 12.0799 90.6389 12.1972 90.6389 12.3731C90.6389 12.5294 90.6389 12.6662 90.6389 12.7835H81.5804C81.5804 14.0343 81.8834 15.0115 82.4892 15.715C83.1146 16.3991 83.9745 16.7411 85.069 16.7411C85.8898 16.7411 86.5836 16.5359 87.1504 16.1254C87.7367 15.6955 88.0983 15.1287 88.2351 14.4251H90.6096C90.4924 15.246 90.1992 15.9886 89.7302 16.6531C89.2611 17.3176 88.6357 17.8453 87.854 18.2362C87.0722 18.6075 86.1537 18.7932 85.0983 18.7932ZM81.6684 11.5815H88.1764C88.1569 11.3666 88.0983 11.0832 88.0006 10.7314C87.9224 10.3796 87.766 10.0376 87.5315 9.70534C87.297 9.35355 86.9745 9.0604 86.5641 8.82587C86.1537 8.59135 85.626 8.47409 84.981 8.47409C84.3947 8.47409 83.8964 8.5718 83.486 8.76724C83.0755 8.96268 82.7433 9.22652 82.4892 9.55876C82.2352 9.87146 82.0397 10.2135 81.9029 10.5848C81.7857 10.9366 81.7075 11.2688 81.6684 11.5815ZM93.1903 18.5V6.50994H95.4476L95.6528 9.96918L95.6235 12.5489V18.5H93.1903ZM95.6235 13.1059L95.5356 10.4675C95.5551 10.0376 95.6528 9.59785 95.8287 9.14834C96.0046 8.67929 96.2684 8.24933 96.6202 7.85846C96.9916 7.44804 97.4606 7.12557 98.0274 6.89105C98.6137 6.63698 99.3173 6.50994 100.138 6.50994H100.636V9.20697H100.109C99.2293 9.20697 98.4964 9.29492 97.9101 9.47081C97.3238 9.62716 96.8645 9.87146 96.5323 10.2037C96.2 10.5359 95.9655 10.9464 95.8287 11.435C95.6919 11.9235 95.6235 12.4805 95.6235 13.1059ZM105.453 18.5H103.02V1.99535H105.453V18.5ZM105.102 1.99535H109.47C111.307 1.99535 112.714 2.44486 113.691 3.34387C114.688 4.24288 115.186 5.59139 115.186 7.38941C115.186 9.01154 114.678 10.2721 113.662 11.1711C112.645 12.0701 111.248 12.5196 109.47 12.5196H105.102V10.6728H109.176C110.349 10.6728 111.268 10.3991 111.932 9.85192C112.616 9.30469 112.958 8.47409 112.958 7.36009C112.958 6.20702 112.626 5.36664 111.961 4.83896C111.297 4.29174 110.369 4.01812 109.176 4.01812H105.102V1.99535ZM117.066 18.5V6.50994H119.324L119.529 9.96918L119.5 12.5489V18.5H117.066ZM119.5 13.1059L119.412 10.4675C119.431 10.0376 119.529 9.59785 119.705 9.14834C119.881 8.67929 120.145 8.24933 120.496 7.85846C120.868 7.44804 121.337 7.12557 121.904 6.89105C122.49 6.63698 123.193 6.50994 124.014 6.50994H124.513V9.20697H123.985C123.105 9.20697 122.373 9.29492 121.786 9.47081C121.2 9.62716 120.741 9.87146 120.408 10.2037C120.076 10.5359 119.842 10.9464 119.705 11.435C119.568 11.9235 119.5 12.4805 119.5 13.1059ZM131.62 18.7932C130.33 18.7932 129.245 18.5293 128.366 18.0016C127.486 17.474 126.822 16.7508 126.372 15.8323C125.942 14.8942 125.727 13.8388 125.727 12.6662C125.727 11.4545 125.942 10.3894 126.372 9.47081C126.822 8.53272 127.486 7.79983 128.366 7.27215C129.245 6.74447 130.339 6.48063 131.649 6.48063C133.564 6.48063 135.02 7.0474 136.017 8.18093C137.014 9.31446 137.512 10.8096 137.512 12.6662C137.512 13.8193 137.297 14.8649 136.867 15.803C136.457 16.7215 135.812 17.4544 134.932 18.0016C134.072 18.5293 132.968 18.7932 131.62 18.7932ZM131.62 16.7118C132.577 16.7118 133.31 16.5065 133.818 16.0961C134.326 15.6857 134.668 15.1678 134.844 14.5424C135.04 13.8975 135.137 13.2427 135.137 12.5783C135.137 11.9138 135.04 11.2688 134.844 10.6434C134.668 9.99849 134.326 9.47081 133.818 9.0604C133.31 8.63043 132.577 8.41545 131.62 8.41545C130.701 8.41545 129.978 8.63043 129.45 9.0604C128.942 9.47081 128.59 9.99849 128.395 10.6434C128.199 11.2688 128.102 11.9138 128.102 12.5783C128.102 13.2427 128.199 13.8975 128.395 14.5424C128.59 15.1678 128.942 15.6857 129.45 16.0961C129.978 16.5065 130.701 16.7118 131.62 16.7118ZM145.247 18.7932C143.957 18.7932 142.872 18.5293 141.993 18.0016C141.113 17.474 140.449 16.7508 139.999 15.8323C139.569 14.8942 139.354 13.8388 139.354 12.6662C139.354 11.4545 139.569 10.3894 139.999 9.47081C140.449 8.53272 141.113 7.79983 141.993 7.27215C142.872 6.74447 143.967 6.48063 145.276 6.48063C147.191 6.48063 148.647 7.0474 149.644 8.18093C150.641 9.31446 151.139 10.8096 151.139 12.6662C151.139 13.8193 150.924 14.8649 150.494 15.803C150.084 16.7215 149.439 17.4544 148.559 18.0016C147.699 18.5293 146.595 18.7932 145.247 18.7932ZM145.247 16.7118C146.204 16.7118 146.937 16.5065 147.445 16.0961C147.953 15.6857 148.296 15.1678 148.471 14.5424C148.667 13.8975 148.765 13.2427 148.765 12.5783C148.765 11.9138 148.667 11.2688 148.471 10.6434C148.296 9.99849 147.953 9.47081 147.445 9.0604C146.937 8.63043 146.204 8.41545 145.247 8.41545C144.328 8.41545 143.605 8.63043 143.077 9.0604C142.569 9.47081 142.217 9.99849 142.022 10.6434C141.827 11.2688 141.729 11.9138 141.729 12.5783C141.729 13.2427 141.827 13.8975 142.022 14.5424C142.217 15.1678 142.569 15.6857 143.077 16.0961C143.605 16.5065 144.328 16.7118 145.247 16.7118ZM154.447 18.5586V4.19402C154.447 3.33409 154.633 2.68915 155.004 2.25919C155.395 1.82923 156.011 1.61425 156.851 1.61425H160.193V3.54907H156.88V18.5586H154.447ZM152.688 8.26888V6.50994H160.046V8.26888H152.688Z" fill="white"/>
</svg>
